<?xml version="1.0" standalone="no"?>
<!DOCTYPE svg PUBLIC "-//W3C//DTD SVG 20010904//EN"
 "http://www.w3.org/TR/2001/REC-SVG-20010904/DTD/svg10.dtd">
<svg version="1.0" xmlns="http://www.w3.org/2000/svg"
 width="1024.000000pt" height="1280.000000pt" viewBox="0 0 1024.000000 1280.000000"
 preserveAspectRatio="xMidYMid meet">
<g transform="translate(0.000000,1280.000000) scale(0.100000,-0.100000)"
fill="#000000" stroke="none">
<path d="M3238 9903 l-3 -2898 -1122 -3 c-713 -1 -1123 -6 -1123 -12 0 -12
4120 -5125 4130 -5125 10 0 4130 5113 4130 5125 0 6 -413 11 -1122 12 l-1123
3 -3 2898 -2 2897 -1880 0 -1880 0 -2 -2897z"/>
<path d="M0 805 l0 -805 5120 0 5120 0 0 805 0 805 -5120 0 -5120 0 0 -805z"/>
</g>
</svg>
